<?xml version="1.0" encoding="utf-8"?>
<svg xmlns="http://www.w3.org/2000/svg" viewBox="0 0 163.354 144.721">
  <g id="Layer_1" transform="matrix(1, 0, 0, 1, -195.031, -9.559)">
    <g transform="matrix(1, 0, 0, 1, 199.425, 13.4575)">
      <path class="st0" d="M2.09,0h118.71c1.15,0,2.09,0.89,2.09,1.98v110.74c0,1.09-0.93,1.98-2.09,1.98H2.09 c-1.15,0-2.09-0.89-2.09-1.98V1.98C0,0.89,0.93,0,2.09,0L2.09,0z M54.94,39.53L70.52,50.4c0.26,0.16,0.49,0.38,0.67,0.64 c0.73,1.06,0.46,2.5-0.59,3.23L55.09,65c-0.4,0.33-0.91,0.52-1.47,0.52c-1.29,0-2.33-1.04-2.33-2.33V41.44h0.01 c0-0.46,0.14-0.92,0.42-1.33C52.44,39.05,53.89,38.8,54.94,39.53L54.94,39.53z M28.02,83.15h50.93c0.49,0,0.89,0.4,0.89,0.89v3.32 c0,0.49-0.4,0.89-0.89,0.89H28.02c-0.49,0-0.89-0.4-0.89-0.89v-3.32C27.13,83.55,27.53,83.15,28.02,83.15L28.02,83.15z M17.02,83.15h4.23c0.49,0,0.89,0.4,0.89,0.89v3.32c0,0.49-0.4,0.89-0.89,0.89h-4.23c-0.49,0-0.89-0.4-0.89-0.89v-3.32 C16.13,83.55,16.53,83.15,17.02,83.15L17.02,83.15z M17.36,98.54H85.3c0.68,0,1.23,0.84,1.23,1.86v0.67c0,1.02-0.56,1.86-1.23,1.86 H17.36c-0.68,0-1.23-0.84-1.23-1.86v-0.67C16.13,99.37,16.68,98.54,17.36,98.54L17.36,98.54z M16.13,29.92h90.62 c1.1,0,2,0.82,2,1.84v41.12c0,1.01-0.89,1.84-2,1.84H16.13c-1.1,0-2-0.82-2-1.84V31.76C14.13,30.74,15.03,29.92,16.13,29.92 L16.13,29.92z M104.75,33.59H18.13v37.44h86.63V33.59L104.75,33.59z M95.8,6.71c2.19,0,3.97,1.78,3.97,3.97s-1.78,3.97-3.97,3.97 c-2.19,0-3.97-1.78-3.97-3.97S93.6,6.71,95.8,6.71L95.8,6.71z M81.88,6.71c2.19,0,3.97,1.78,3.97,3.97s-1.78,3.97-3.97,3.97 c-2.19,0-3.97-1.78-3.97-3.97S79.68,6.71,81.88,6.71L81.88,6.71z M109.71,6.71c2.19,0,3.97,1.78,3.97,3.97s-1.78,3.97-3.97,3.97 s-3.97-1.78-3.97-3.97S107.52,6.71,109.71,6.71L109.71,6.71z M118.71,21.37H4.17v89.37h114.54V21.37L118.71,21.37z" style="clip-rule: evenodd; fill-rule: evenodd;"/>
    </g>
  </g>
  <path fill-rule="nonzero" d="M 60.333 138.961 L 47.337 125.966 L 47.341 125.963 C 46.306 124.931 46.184 123.266 47.109 122.089 L 91.208 65.889 C 91.385 65.441 91.596 65.007 91.838 64.59 L 95.419 58.429 C 95.863 50.515 99.254 43.388 104.513 38.129 C 110.163 32.48 117.969 28.985 126.59 28.985 C 135.211 28.985 143.016 32.48 148.666 38.129 C 154.315 43.78 157.81 51.585 157.81 60.207 C 157.81 68.827 154.316 76.633 148.666 82.281 C 143.407 87.54 136.281 90.932 128.367 91.377 L 122.206 94.958 C 121.695 95.255 121.161 95.506 120.607 95.711 L 64.363 139.065 C 63.214 140.103 61.44 140.068 60.333 138.961 Z M 126.59 91.426 Z" style=""/>
  <path fill="#DD4F5A" d="M 49.408 123.896 L 62.403 136.891 L 115.116 96.259 C 106.517 95.127 97.205 85.865 93.512 79.512 C 91.943 76.812 90.893 74.046 90.583 71.421 L 49.408 123.896 Z" style=""/>
  <path fill="#D93642" d="M 49.409 123.88 L 52.202 126.672 L 59.372 117.656 L 92.141 76.833 C 91.343 75.032 90.807 73.231 90.592 71.491 L 49.409 123.88 Z" style=""/>
  <path fill-rule="nonzero" d="M 57.127 113.885 L 72.911 129.669 L 70.738 131.842 L 54.954 116.058 L 57.127 113.885 Z M 94.329 86.906 L 99.89 92.467 C 101.153 93.731 101.025 95.942 99.518 96.952 L 92.265 102.747 C 91.075 103.7 89.382 103.672 88.289 102.578 L 84.218 98.507 C 83.128 97.417 83.097 95.707 84.048 94.521 L 89.979 87.108 L 89.973 87.104 C 91.049 85.763 93.125 85.702 94.329 86.906 Z M 73.853 110.415 C 74.833 109.449 76.491 109.907 76.837 111.239 C 76.994 111.844 76.824 112.488 76.387 112.936 L 75.457 113.866 C 74.477 114.832 72.819 114.374 72.473 113.042 C 72.316 112.436 72.485 111.793 72.923 111.345 L 73.853 110.415 Z M 81.241 103.018 C 82.228 102.053 83.889 102.517 84.232 103.854 C 84.387 104.461 84.215 105.106 83.777 105.553 L 80.94 108.39 C 80.241 109.091 79.106 109.091 78.405 108.39 C 77.706 107.691 77.706 106.555 78.405 105.855 L 81.241 103.018 Z" style=""/>
  <path fill="#FACB00" d="M 92.621 88.614 L 98.181 94.174 C 98.394 94.386 98.414 94.759 98.181 94.945 L 90.766 100.871 C 90.535 101.055 90.205 101.08 89.996 100.871 L 85.925 96.799 C 85.716 96.591 85.737 96.263 85.925 96.03 L 91.851 88.614 C 92.038 88.38 92.409 88.401 92.621 88.614 Z" style=""/>
  <path fill="#E1B700" d="M 92.621 88.614 L 93.215 89.208 C 93.428 89.42 93.408 89.754 93.215 89.978 L 87.041 97.145 C 86.848 97.369 86.479 97.354 86.271 97.145 L 85.925 96.8 C 85.716 96.591 85.737 96.263 85.925 96.03 L 91.851 88.614 C 92.038 88.38 92.409 88.401 92.621 88.614 Z" style=""/>
  <path fill="#FACB00" d="M 122.852 91.204 L 120.742 92.431 C 110.73 98.252 88.543 76.068 94.364 66.054 L 95.591 63.944 C 96.442 71.071 99.692 77.461 104.513 82.282 C 109.335 87.103 115.725 90.355 122.852 91.204 Z" style=""/>
  <path fill="#344C56" d="M 126.59 31.912 C 142.216 31.912 154.884 44.58 154.884 60.207 C 154.884 69.917 149.99 78.485 142.535 83.58 C 135.052 83.021 126.301 77.997 118.688 71.148 C 110.809 64.058 104.217 55.073 101.528 47.066 C 106.261 38.057 115.706 31.912 126.59 31.912 Z M 137.979 86.111 C 134.494 87.646 130.642 88.5 126.59 88.5 C 110.963 88.5 98.295 75.832 98.295 60.207 C 98.295 57.112 98.794 54.135 99.711 51.349 C 103.078 58.988 109.288 67.069 116.51 73.567 C 123.228 79.611 130.868 84.327 137.979 86.111 Z" style=""/>
  <path fill="#405D6B" d="M 126.59 31.911 C 142.216 31.912 154.883 44.58 154.884 60.206 C 154.884 69.918 149.989 78.485 142.534 83.58 C 135.052 83.021 126.3 77.997 118.688 71.148 C 112.944 65.98 107.884 59.804 104.522 53.734 C 106.417 43.559 113.755 35.3 123.401 32.091 C 124.448 31.975 125.511 31.911 126.59 31.911 Z M 137.979 86.111 C 137.176 86.465 136.357 86.781 135.525 87.058 C 134.478 87.176 133.415 87.238 132.336 87.238 C 116.794 87.238 104.18 74.705 104.045 59.193 C 107.406 64.287 111.737 69.272 116.51 73.567 C 123.228 79.611 130.868 84.326 137.979 86.111 Z" style=""/>
</svg>